<svg viewBox="0 0 100 100" xmlns="http://www.w3.org/2000/svg"><path d="M61.5,71.5Q25,93,26,51.5Q27,10,62.5,30Q98,50,61.5,71.5Z" stroke="#000" stroke-width="1" fill="#efe6e5"/><path d="M62,70Q27,90,26.5,49Q26,8,61.5,29Q97,50,62,70Z" stroke="#000" stroke-width="1" fill="#eae1e5"/><path d="M60.5,71Q26,92,26.5,51.5Q27,11,61,30.5Q95,50,60.5,71Z" stroke="#000" stroke-width="1" fill="#e5dce5"/><path d="M61,70.5Q26,91,26,50Q26,9,61,29.5Q96,50,61,70.5Z" stroke="#000" stroke-width="1" fill="#e0d7e5"/><path d="M63,69.5Q27,89,27,50Q27,11,63,30.5Q99,50,63,69.5Z" stroke="#000" stroke-width="1" fill="#dbd2e5"/><path d="M63,69.5Q27,89,26,48Q25,7,62,28.5Q99,50,63,69.5Z" stroke="#000" stroke-width="1" fill="#d6cde5"/><path d="M61,71.5Q25,93,26,51.5Q27,10,62,30Q97,50,61,71.5Z" stroke="#000" stroke-width="1" fill="#d1c8e5"/><path d="M60.5,71Q26,92,26,50.5Q26,9,60.5,29.5Q95,50,60.5,71Z" stroke="#000" stroke-width="1" fill="#ccc3e5"/><path d="M63,70Q27,90,27,50.5Q27,11,63,30.5Q99,50,63,70Z" stroke="#000" stroke-width="1" fill="#c7bee5"/><path d="M63,71Q26,92,26,50.5Q26,9,63,29.5Q100,50,63,71Z" stroke="#000" stroke-width="1" fill="#c2b9e5"/><path d="M62.5,70Q27,90,26.5,49.5Q26,9,62,29.5Q98,50,62.5,70Z" stroke="#000" stroke-width="1" fill="#bdb4e5"/><path d="M62,71Q26,92,25.5,49.5Q25,7,61.5,28.5Q98,50,62,71Z" stroke="#000" stroke-width="1" fill="#b8afe5"/><path d="M60.5,71.5Q25,93,25.5,50.5Q26,8,61,29Q96,50,60.5,71.5Z" stroke="#000" stroke-width="1" fill="#b3aae5"/><path d="M61.5,71Q26,92,26.5,51Q27,10,62,30Q97,50,61.5,71Z" stroke="#000" stroke-width="1" fill="#aea5e5"/><path d="M61,70Q27,90,27,50Q27,10,61,30Q95,50,61,70Z" stroke="#000" stroke-width="1" fill="#a9a0e5"/><path d="M60.5,71Q26,92,26.5,50.5Q27,9,61,29.5Q95,50,60.5,71Z" stroke="#000" stroke-width="1" fill="#a49be5"/><path d="M62,70.5Q26,91,26.5,51Q27,11,62.5,30.5Q98,50,62,70.5Z" stroke="#000" stroke-width="1" fill="#9f96e5"/><path d="M63,70.5Q27,91,26,49Q25,7,62,28.5Q99,50,63,70.5Z" stroke="#000" stroke-width="1" fill="#9a91e5"/><path d="M61.5,71Q26,92,26,50Q26,8,61.5,29Q97,50,61.5,71Z" stroke="#000" stroke-width="1" fill="#958ce5"/><path d="M62,70.5Q26,91,26.5,50.5Q27,10,62.5,30Q98,50,62,70.5Z" stroke="#000" stroke-width="1" fill="#9087e5"/><path d="M62.5,70.5Q26,91,26.5,50.5Q27,10,63,30Q99,50,62.5,70.5Z" stroke="#000" stroke-width="1" fill="#8b82e5"/><path d="M63,71Q26,92,26,50Q26,8,63,29Q100,50,63,71Z" stroke="#000" stroke-width="1" fill="#867de5"/><path d="M62,70Q27,90,27,50Q27,10,62,30Q97,50,62,70Z" stroke="#000" stroke-width="1" fill="#8178e5"/><path d="M62.5,71Q26,92,26,50.5Q26,9,62.5,29.5Q99,50,62.5,71Z" stroke="#000" stroke-width="1" fill="#7c73e5"/><path d="M62,71.5Q25,93,26,51.5Q27,10,63,30Q99,50,62,71.5Z" stroke="#000" stroke-width="1" fill="#776ee5"/><path d="M62.5,70.5Q26,91,26,49.5Q26,8,62.5,29Q99,50,62.5,70.5Z" stroke="#000" stroke-width="1" fill="#7269e5"/><path d="M62.5,70.5Q26,91,25.5,49Q25,7,62,28.5Q99,50,62.5,70.5Z" stroke="#000" stroke-width="1" fill="#6d64e5"/><path d="M61.5,71.5Q25,93,26,51.5Q27,10,62.5,30Q98,50,61.5,71.5Z" stroke="#000" stroke-width="1" fill="#685fe5"/><path d="M63.5,70Q27,90,26.5,49.5Q26,9,63,29.5Q100,50,63.5,70Z" stroke="#000" stroke-width="1" fill="#635ae5"/><path d="M62,70.5Q26,91,26,50Q26,9,62,29.5Q98,50,62,70.5Z" stroke="#000" stroke-width="1" fill="#5e55e5"/><path d="M61.5,71.5Q25,93,25.5,51Q26,9,62,29.5Q98,50,61.5,71.5Z" stroke="#000" stroke-width="1" fill="#5950e5"/><path d="M62,70Q27,90,26.5,49.5Q26,9,61.5,29.5Q97,50,62,70Z" stroke="#000" stroke-width="1" fill="#544be5"/></svg>