<svg viewBox="0 0 144 144" xml:space="preserve" xmlns="http://www.w3.org/2000/svg"><path d="M28.719 108.842a6.6 6.6 0 0 1-1.558-4.238V52.661a6.62 6.62 0 0 1 6.62-6.62h65.258M128.897 71.856v32.748a6.531 6.531 0 0 1-1.534 4.238" fill="none" stroke="#ffffff" stroke-linecap="round" stroke-linejoin="round" stroke-miterlimit="10" class="stroke-3d6cb4"></path><path d="M125.014 77.441v20.795a6.62 6.62 0 0 1-6.62 6.62H37.665a6.62 6.62 0 0 1-6.62-6.62V56.068a6.62 6.62 0 0 1 6.62-6.62h61.847M136.502 108.842H19.557a2.997 2.997 0 0 0-2.997 2.997v.216a2.997 2.997 0 0 0 2.997 2.997h116.944a2.997 2.997 0 0 0 2.997-2.997v-.216a2.996 2.996 0 0 0-2.996-2.997z" fill="none" stroke="#ffffff" stroke-linecap="round" stroke-linejoin="round" stroke-miterlimit="10" class="stroke-3d6cb4"></path><path d="M97.106 111.948H58.953a1.503 1.503 0 0 1-1.499-1.499v-.108c0-.824.674-1.499 1.499-1.499h38.153c.824 0 1.499.674 1.499 1.499v.108a1.505 1.505 0 0 1-1.499 1.499z" fill="#ffffff" opacity=".3" class="fill-528ac8"></path><path d="M97.106 111.948H58.953a1.503 1.503 0 0 1-1.499-1.499v-.108c0-.824.674-1.499 1.499-1.499h38.153c.824 0 1.499.674 1.499 1.499v.108a1.505 1.505 0 0 1-1.499 1.499zM41.36 59.555h35M41.36 69.555h40" fill="none" stroke="#ffffff" stroke-linecap="round" stroke-linejoin="round" stroke-miterlimit="10" class="stroke-3d6cb4"></path><g fill="none" stroke="#ffffff" stroke-linecap="round" stroke-linejoin="round" stroke-miterlimit="10" class="stroke-3d6cb4"><path d="M7.499 43.656v9.712M12.355 48.512H2.643"></path></g><g fill="none" stroke="#ffffff" stroke-linecap="round" stroke-linejoin="round" stroke-miterlimit="10" class="stroke-3d6cb4"><path d="M15.463 65.289v5.815M18.37 68.196h-5.814"></path></g><path d="m137.801 54.345 3.231-.877-2.068-7.615-3.716 1.009c-1.045-1.897-2.246-3.372-3.606-4.597l1.883-3.535-6.948-4.051-1.909 3.317c-2.111-.67-4.46-.99-6.617-.904l-.897-3.304-7.107 1.93.897 3.304c-2.919 1.293-4.14 2.538-5.622 4.183l-3.532-1.884-4.049 6.947 3.417 2.275a17.301 17.301 0 0 0-.827 5.801l-4.011 1.089 2.068 7.615 3.526-.958c1.08 2.432 2.598 4.32 4.522 6.053l-1.969 3.221 6.905 3.894 2.248-3.493c2.111.67 3.784 1.089 6.956.728l1.05 3.866 7.107-1.93-1.05-3.866c1.904-1.018 3.78-2.44 5.262-4.086l3.352 1.933 3.959-6.923-3.292-1.636c.785-2.467 1.136-4.861.837-7.506zm-15.905 12.961c-6.312 1.714-12.819-2.013-14.533-8.325-1.714-6.312 2.013-12.819 8.325-14.534 6.312-1.714 12.819 2.013 14.534 8.325 1.714 6.313-2.014 12.82-8.326 14.534z" fill="none" stroke="#ffffff" stroke-linecap="round" stroke-linejoin="round" stroke-miterlimit="10" class="stroke-3d6cb4"></path><path d="m137.801 54.345 3.231-.877-2.068-7.615-3.716 1.009c-1.045-1.897-2.246-3.372-3.606-4.597l1.883-3.535-6.948-4.051-1.909 3.317c-2.111-.67-4.46-.99-6.617-.904l-.897-3.304-7.107 1.93.897 3.304c-2.919 1.293-4.14 2.538-5.622 4.183l-3.532-1.884-4.049 6.947 3.417 2.275a17.301 17.301 0 0 0-.827 5.801l-4.011 1.089 2.068 7.615 3.526-.958c1.08 2.432 2.598 4.32 4.522 6.053l-1.969 3.221 6.905 3.894 2.248-3.493c2.111.67 3.784 1.089 6.956.728l1.05 3.866 7.107-1.93-1.05-3.866c1.904-1.018 3.78-2.44 5.262-4.086l3.352 1.933 3.959-6.923-3.292-1.636c.785-2.467 1.136-4.861.837-7.506zm-15.905 12.961c-6.312 1.714-12.819-2.013-14.533-8.325-1.714-6.312 2.013-12.819 8.325-14.534 6.312-1.714 12.819 2.013 14.534 8.325 1.714 6.313-2.014 12.82-8.326 14.534z" fill="#ffffff" opacity=".3" class="fill-528ac8"></path><path fill="none" stroke="#ffffff" stroke-linecap="round" stroke-linejoin="round" stroke-miterlimit="10" d="M41.36 78.555h54" class="stroke-3d6cb4"></path><path d="M112.973 96.86H43.086a2.424 2.424 0 0 1-2.417-2.417v-5.182a2.425 2.425 0 0 1 2.417-2.417h69.887a2.424 2.424 0 0 1 2.417 2.417v5.182a2.424 2.424 0 0 1-2.417 2.417z" fill="#ffffff" opacity=".3" class="fill-528ac8"></path></svg>