<svg viewBox="0 0 64 64" xml:space="preserve" xmlns="http://www.w3.org/2000/svg" enable-background="new 0 0 64 64"><path d="M5 5h2v2H5zM9 5h2v2H9zM13 5h2v2h-2z" fill="#ffffff" class="fill-000000"></path><path d="M63 15h-6V1H1v48h8v6h22v8h28v-8h4V15zm-2 8H11v-6h50v6zM55 3v6H3V3h52zM3 47V11h52v4H9v32H3zm36-6h-8v8H15V31h24v10zm18 20H33V43h24v18zm2-8V41H41V29H13v22h18v2H11V25h50v28h-2z" fill="#ffffff" class="fill-000000"></path><path d="M13 19h2v2h-2zM17 19h2v2h-2zM21 19h2v2h-2zM17 33h20v2H17zM17 37h20v2H17zM17 41h12v2H17zM17 45h12v2H17zM35 45h20v2H35zM35 49h20v2H35zM35 53h20v2H35zM53 57h2v2h-2zM35 57h16v2H35z" fill="#ffffff" class="fill-000000"></path></svg>