<svg data-name="Layer 1" viewBox="0 0 512 512" xmlns="http://www.w3.org/2000/svg"><path d="M273.37 275.23a66.37 66.37 0 1 0 66.37 66.37 66.44 66.44 0 0 0-66.37-66.37Zm0 122.43a56.07 56.07 0 1 1 56.06-56.06 56.13 56.13 0 0 1-56.06 56.06Z" fill="#ffffff" class="fill-000000"></path><path d="m422.55 314.25-35.64-3.95a117.3 117.3 0 0 0-11.76-27.94l22.05-27.58a5.15 5.15 0 0 0-.38-6.86l-30.11-30.11a5.15 5.15 0 0 0-6.86-.38l-27.54 22a124.22 124.22 0 0 0-28.59-11.67l-3.94-35.39a5.15 5.15 0 0 0-5.12-4.58h-16.14v-29.25a227.46 227.46 0 0 0 26 1.56c35.17 0 64.1-9.24 86.25-27.62 40-33.19 43-83.68 43.07-85.81a5.19 5.19 0 0 0-1.3-3.67 5.13 5.13 0 0 0-3.54-1.73c-103.2-5.08-141.22 43.32-154.32 70.33C263.49 82.49 221.66 10.28 83 17.09a5.14 5.14 0 0 0-4.9 5.4c.13 2.58 3.69 63.84 52.24 104.11 26.88 22.29 62 33.5 104.75 33.5a279.92 279.92 0 0 0 33.1-2.06v29.79h-16.11a5.16 5.16 0 0 0-5.13 4.58L243 227.8a117 117 0 0 0-28.83 12l-28-22.37a5.15 5.15 0 0 0-6.86.38l-30.11 30.11a5.15 5.15 0 0 0-.38 6.86l22.43 28.06a113.33 113.33 0 0 0-11.74 28.41l-35.38 3.93a5.15 5.15 0 0 0-4.58 5.12v42.59a5.15 5.15 0 0 0 4.58 5.12l35.37 3.92a113.45 113.45 0 0 0 11.75 28.43l-22.43 28.05a5.15 5.15 0 0 0 .38 6.86l30.11 30.11a5.15 5.15 0 0 0 6.86.38l28-22.36a116.4 116.4 0 0 0 28.84 12l3.99 35.38a5.16 5.16 0 0 0 5.13 4.58h42.58a5.15 5.15 0 0 0 5.12-4.58l3.94-35.39A116.66 116.66 0 0 0 333 443.12l27.48 22a5.14 5.14 0 0 0 6.86-.38l30.12-30.11a5.16 5.16 0 0 0 .38-6.86L375.65 400a116.65 116.65 0 0 0 11.76-29l35.14-3.91a5.14 5.14 0 0 0 4.58-5.12v-42.6a5.14 5.14 0 0 0-4.58-5.12Zm-8.69-263.06c3 0 6 .05 9.16.15-1.83 13.2-9.36 48.8-38.79 73.21-25.38 21-60.92 29-105.71 23.62v-4c7.52-7.63 45.27-44 92.09-54.75a5.16 5.16 0 0 0-2.31-10.05c-40.78 9.39-74.21 36.18-89.61 50.31 2.42-10.36 22.63-78.49 135.17-78.49ZM137 118.74C99.81 87.92 90.93 42.39 89 27.15c157.88-5.6 178.42 93.85 179.22 98.14a5.39 5.39 0 0 0 .61 1.64c0 .17-.08.32-.12.46-17.29-16.31-59.59-51.75-111.76-63.76a5.15 5.15 0 0 0-2.32 10c58.44 13.45 105.5 59.42 113.63 67.74v6.25c-55.64 6.91-99.73-2.82-131.26-28.88Zm279.79 238.6-31.36 3.49-2.7.26a5.15 5.15 0 0 0-4.54 4A106.33 106.33 0 0 1 364.82 398a5.17 5.17 0 0 0 .79 6.4l1.77 1.73 19.56 24.46-23.59 23.59-24.3-19.44-1.23-1.47a5.16 5.16 0 0 0-6.73-1 106.52 106.52 0 0 1-33.57 14.08 5.15 5.15 0 0 0-4 5v2.57l-3.47 31.16h-33.37l-3.46-31.17v-2.57a5.15 5.15 0 0 0-4-5l-1-.24a106.21 106.21 0 0 1-31.78-13.34 5.18 5.18 0 0 0-6 .39l-27.07 21.71-23.59-23.59 19.83-24.79 2-2.6a5.14 5.14 0 0 0 .3-5.85 103.24 103.24 0 0 1-13.12-31.67 5.15 5.15 0 0 0-4-3.9l-3.43-.66-31.44-3.5v-33.39l31.73-3.54 3-.5a5.12 5.12 0 0 0 4.16-3.92 103.62 103.62 0 0 1 13.16-31.78 5.15 5.15 0 0 0-.31-5.87l-21.82-27.36 23.59-23.59L208 248l2.42 2.07a5.17 5.17 0 0 0 6.3.3l.78-.55a106.44 106.44 0 0 1 31.75-13 5.14 5.14 0 0 0 4-5v-2.58l3.46-31.16h33.37l3.47 31.16v2.58a5.15 5.15 0 0 0 4 5 112.64 112.64 0 0 1 32.7 13.3 5.15 5.15 0 0 0 6.15-.59l26.32-21.24 23.59 23.59-19.77 24.71-.07.1-1.78 2.31a5.18 5.18 0 0 0-1 3.84 5.07 5.07 0 0 0 1.61 3.16 106.85 106.85 0 0 1 12.56 30.56 5.15 5.15 0 0 0 4.93 3.95h2.6l31.44 3.5Z" fill="#ffffff" class="fill-000000"></path></svg>