<svg id="Layer_1" version="1.1" viewBox="0 0 512 512" xml:space="preserve" xmlns="http://www.w3.org/2000/svg" enable-background="new 0 0 512 512"><path d="M148.39 330.25H61.03c-18.56 0-33.67-15.1-33.67-33.67v-82.5c0-18.57 15.11-33.67 33.67-33.67h87.36c4.27 0 7.73 3.46 7.73 7.73v134.39c0 4.26-3.46 7.72-7.73 7.72zM61.03 195.86c-10.04 0-18.22 8.17-18.22 18.22v82.5c0 10.04 8.17 18.22 18.22 18.22h79.63V195.86H61.03z" fill="#ffffff" class="fill-000000"></path><path d="M129.08 436.72c-.73 0-1.47-.11-2.19-.32a7.731 7.731 0 0 1-4.69-3.89L67.73 326.04a7.723 7.723 0 0 1 .29-7.55 7.744 7.744 0 0 1 6.6-3.69h38.63c2.76 0 5.31 1.47 6.69 3.86L170 405.37c1.03 1.77 1.3 3.88.77 5.86s-1.83 3.67-3.6 4.69l-34.23 19.76a7.658 7.658 0 0 1-3.86 1.04zM87.24 330.25l45.01 87.99 20.5-11.83-43.97-76.16H87.24zM35.09 291.74H18.91c-9.87 0-17.9-8.03-17.9-17.9V236.8c0-9.87 8.03-17.9 17.9-17.9h16.18c4.27 0 7.73 3.46 7.73 7.73v57.38c-.01 4.27-3.46 7.73-7.73 7.73zm-16.18-57.38c-1.35 0-2.44 1.1-2.44 2.44v37.04c0 1.35 1.09 2.44 2.44 2.44h8.45v-41.93h-8.45zM155.79 196.12c-4.63 0-7.49-.23-8.1-.29-4.24-.39-7.37-4.14-6.98-8.39s4.06-7.3 8.38-7c.88.08 87.95 6.78 148.34-74.79 2.54-3.42 7.38-4.15 10.81-1.61a7.728 7.728 0 0 1 1.61 10.81c-55.29 74.66-129.55 81.27-154.06 81.27z" fill="#ffffff" class="fill-000000"></path><path d="M303.28 407.69c-2.37 0-4.7-1.08-6.22-3.13-43.71-59.03-101.21-71.58-129.95-73.98 2.38 4.05 4.05 8.84 3.93 14.27-.26 11.99-9.18 22.84-26.52 32.25-3.75 2.03-8.44.65-10.47-3.11-2.04-3.75-.65-8.44 3.11-10.48 11.73-6.37 18.28-13.11 18.44-18.97.17-6.89-8.03-13.44-11.21-15.38-2.83-1.73-4.26-5.09-3.51-8.33.74-3.24 3.46-5.65 6.76-5.97 3.91-.39 96.09-8.3 161.84 80.49a7.728 7.728 0 0 1-1.61 10.81 7.605 7.605 0 0 1-4.59 1.53z" fill="#ffffff" class="fill-000000"></path><path d="M331.45 411.98h-22.96c-8.09 0-14.68-6.58-14.68-14.68V113.4c0-8.1 6.59-14.68 14.68-14.68h22.96c7.21 0 13.08 5.86 13.08 13.07V398.9c-.01 7.21-5.87 13.08-13.08 13.08zm-22.19-15.46h19.81V114.17h-19.81v282.35z" fill="#ffffff" class="fill-000000"></path><path d="M334.99 313.25c-4.27 0-7.73-3.46-7.73-7.73s3.46-7.73 7.73-7.73c23.41 0 42.45-19.04 42.45-42.45 0-23.41-19.04-42.45-42.45-42.45-4.27 0-7.73-3.46-7.73-7.73 0-4.27 3.46-7.73 7.73-7.73 31.93 0 57.9 25.98 57.9 57.91s-25.98 57.91-57.9 57.91zM396.94 200.23c-1.65 0-3.29-.52-4.66-1.57a7.724 7.724 0 0 1-2.6-8.79l16.62-45.94a51.977 51.977 0 0 1 .38-34.23c4.73-13.09 14.28-23.56 26.9-29.48 12.62-5.91 26.77-6.55 39.86-1.82 27.04 9.78 41.08 39.73 31.31 66.77-9.78 27.04-39.76 41.09-66.77 31.3-1.13-.41-2.27-.87-3.42-1.39l-33.12 23.7a7.683 7.683 0 0 1-4.5 1.45zm58.75-109.49c-5.31 0-10.6 1.17-15.55 3.49-8.87 4.16-15.6 11.53-18.93 20.74-3.06 8.43-2.88 17.69.48 26.08.7 1.76.73 3.72.09 5.5l-9.12 25.2 16.36-11.71a7.698 7.698 0 0 1 8.63-.71c1.98 1.12 3.81 1.97 5.57 2.61 19.05 6.87 40.11-3 46.99-22.02 6.87-19.02-3-40.1-22.03-46.98-4.07-1.47-8.29-2.2-12.49-2.2zM458.89 428.41c-5.8 0-11.63-.98-17.27-2.95-13.15-4.6-23.72-14.05-29.75-26.6-5.09-10.58-6.43-22.55-3.85-34.01l-21.2-44.02a7.724 7.724 0 0 1 1.7-9 7.734 7.734 0 0 1 9.1-1.06l35.35 20.22c1.09-.63 2.17-1.2 3.26-1.73 25.89-12.48 57.12-1.54 69.6 24.36 12.47 25.91 1.54 57.13-24.37 69.6-7.15 3.45-14.84 5.19-22.57 5.19zm-47.35-91.87 11.63 24.14c.82 1.71.99 3.66.46 5.48-2.49 8.69-1.72 17.91 2.17 25.99 4.25 8.83 11.68 15.48 20.93 18.72 9.25 3.24 19.21 2.68 28.04-1.57 18.22-8.78 25.91-30.74 17.14-48.97-8.77-18.22-30.71-25.91-48.97-17.14-1.71.83-3.44 1.86-5.28 3.16-2.68 1.91-6.17 1.85-8.76.11l-17.36-9.92z" fill="#ffffff" class="fill-000000"></path></svg>