<svg version="1.1" id="Layer_1" xmlns="http://www.w3.org/2000/svg" xmlns:xlink="http://www.w3.org/1999/xlink" x="0px" y="0px" viewBox="0 0 500 500" style="width: 166px;" xml:space="preserve" data-imageid="smartphone-data-27" imageName="Smartphone Data" class="illustrations_image">
<style type="text/css">
	.st0_smartphone-data-27{fill:#231F20;}
	.st1_smartphone-data-27{fill:#FFFFFF;}
	.st2_smartphone-data-27{fill:#D1D3D4;}
	.st3_smartphone-data-27{fill:none;}
	.st4_smartphone-data-27{fill:#68E1FD;}
</style>
<g id="Smartphone_smartphone-data-27">
	<path class="st0_smartphone-data-27" d="M396.5,137.2c0,0-3-5.6-7.8-13.2c0,0-15.3,11.4-15.2,10.8S396.5,137.2,396.5,137.2z"/>
	<path class="st0_smartphone-data-27" d="M396.5,138L396.5,138c-8.1-1.1-21.3-2.7-22.7-2.5c-0.4,0.2-0.5,0.1-0.7,0c-0.2-0.2-0.4-0.5-0.3-0.8&#10;&#9;&#9;c0-0.2,0.1-0.4,0.5-0.5l0,0c0.9-0.4,9.6-6.8,14.9-10.7c0.2-0.1,0.4-0.2,0.5-0.1c0.2,0,0.4,0.2,0.5,0.3c4.8,7.6,7.8,13.2,7.8,13.2&#10;&#9;&#9;c0.1,0.2,0.1,0.5,0,0.7C396.9,137.9,396.7,138,396.5,138L396.5,138z M375.9,134.2c2.9,0.2,8.4,0.8,19.2,2.2&#10;&#9;&#9;c-1.1-2-3.5-6.1-6.7-11.3C381.7,130.2,378,132.8,375.9,134.2L375.9,134.2z"/>
	<polygon class="st0_smartphone-data-27" points="193.7,368.2 186,355.5 196.6,345.9 &#9;"/>
	<path class="st0_smartphone-data-27" d="M193.7,368.9c-0.2,0-0.5-0.1-0.6-0.3l-7.6-12.7c-0.2-0.3-0.1-0.7,0.1-0.9l10.6-9.6c0.3-0.3,0.7-0.2,1,0&#10;&#9;&#9;c0.1,0.2,0.2,0.4,0.2,0.6l-2.9,22.3c0,0.3-0.3,0.5-0.6,0.6L193.7,368.9L193.7,368.9z M186.9,355.6l6.3,10.5l2.4-18.4L186.9,355.6&#10;&#9;&#9;L186.9,355.6z"/>
	<path class="st0_smartphone-data-27" d="M198.6,370.9l123,17.5c5.2,0.7,10.1-2.5,11.6-7.5l63.6-238.1c1.3-4.9-1.9-9.3-7.1-9.7l-125.4-10.1&#10;&#9;&#9;c-5.1-0.3-9.7,3-11.2,7.9l-61,230.2c-1.2,4.1,1.1,8.3,5.1,9.5C197.8,370.7,198.2,370.8,198.6,370.9L198.6,370.9z"/>
	<path class="st0_smartphone-data-27" d="M323,389.2c-0.5,0-1,0-1.5-0.1l-123-17.5c-2.4-0.3-4.6-1.6-5.9-3.7c-1.3-2.1-1.7-4.6-1.1-7l61-230.2&#10;&#9;&#9;c1.6-5.2,6.5-8.7,11.9-8.4l125.4,10.1c2.6,0.1,5,1.4,6.6,3.5c1.4,2,1.8,4.6,1.1,7L333.9,381C332.5,385.8,328,389.2,323,389.2z&#10;&#9;&#9; M263.6,123.6c-4.5,0.1-8.4,3.1-9.7,7.4l-61,230.2c-0.6,2-0.3,4.2,0.9,5.9c1.1,1.7,3,2.8,5,3l0,0l123,17.5c4.8,0.6,9.4-2.3,10.9-7&#10;&#9;&#9;l63.6-238.1c0.6-2,0.3-4.2-0.9-5.9c-1.3-1.8-3.3-2.8-5.5-2.9l-125.5-10.1C264.1,123.6,263.9,123.6,263.6,123.6L263.6,123.6z"/>
	<path class="st1_smartphone-data-27" d="M190.6,357.7l123,17.5c5.2,0.7,10.1-2.5,11.6-7.5l63.6-238.1c1.3-4.9-1.9-9.3-7.1-9.7l-125.4-10.1&#10;&#9;&#9;c-5.1-0.3-9.7,3-11.2,7.9l-61,230.2c-1.2,4.1,1.1,8.3,5.1,9.5C189.8,357.6,190.2,357.7,190.6,357.7L190.6,357.7z"/>
	<path class="st0_smartphone-data-27" d="M315,376.1c-0.5,0-1,0-1.5-0.1l-123-17.5c-2.4-0.3-4.6-1.6-5.9-3.7c-1.3-2.1-1.7-4.6-1.1-7l61-230.2&#10;&#9;&#9;c1.5-5.2,6.5-8.7,11.9-8.4l125.4,10.1c2.6,0.1,5,1.4,6.6,3.5c1.4,2,1.8,4.6,1.1,7l-63.6,238.1C324.5,372.7,320,376,315,376.1z&#10;&#9;&#9; M255.6,110.4c-4.5,0.1-8.4,3.1-9.7,7.4l-61,230.2c-0.6,2-0.3,4.2,0.9,5.9c1.1,1.7,3,2.8,5,3l0,0l123,17.5c4.8,0.6,9.4-2.3,10.9-7&#10;&#9;&#9;l63.6-238.2c0.6-2,0.3-4.2-0.9-5.9c-1.3-1.8-3.3-2.9-5.5-3l-125.4-10.1C256.1,110.5,255.9,110.5,255.6,110.4L255.6,110.4z"/>
	<path class="st1_smartphone-data-27" d="M241.4,356.4l24,3.4c3.1,0.4,6.1-1.6,7-4.6l2.4-9c0.7-2.6-0.7-5.2-3.3-6c-0.3-0.1-0.6-0.1-0.9-0.2l-24-3.3&#10;&#9;&#9;c-3.1-0.4-6,1.6-6.9,4.6l-2.4,8.9c-0.8,2.5,0.7,5.2,3.2,6C240.9,356.3,241.2,356.3,241.4,356.4z"/>
	<path class="st2_smartphone-data-27" d="M266.2,360.5c-0.3,0-0.6,0-0.9-0.1l-24-3.4c-3-0.3-5.2-3.1-4.8-6.1c0-0.3,0.1-0.6,0.2-0.9l2.4-8.9&#10;&#9;&#9;c1-3.3,4.2-5.5,7.7-5.1l24,3.3c3,0.3,5.2,3,4.9,6.1c0,0.3-0.1,0.6-0.2,0.9l-2.4,9C272.2,358.3,269.4,360.4,266.2,360.5z&#10;&#9;&#9; M245.9,337.4c-2.5,0-4.7,1.7-5.5,4.1l-2.4,8.9c-0.6,2.2,0.6,4.5,2.8,5.1c0.2,0.1,0.5,0.1,0.7,0.1l0,0l24,3.4&#10;&#9;&#9;c2.8,0.3,5.4-1.4,6.2-4.1l2.4-9c0.3-1.2,0.2-2.4-0.5-3.5c-0.7-1-1.8-1.7-3-1.8l-24-3.3C246.4,337.4,246.2,337.4,245.9,337.4&#10;&#9;&#9;L245.9,337.4z"/>
	<path class="st2_smartphone-data-27" d="M338.8,129.3L338.8,129.3l-36.8-3.1c-0.4,0-0.7-0.4-0.6-0.8c0-0.4,0.4-0.7,0.8-0.6l0,0l36.7,3.1&#10;&#9;&#9;c0.4,0,0.7,0.4,0.6,0.8C339.4,129,339.1,129.3,338.8,129.3z"/>
	<path class="st2_smartphone-data-27" d="M297,125.8L297,125.8l-4.9-0.4c-0.4,0-0.7-0.4-0.6-0.8c0-0.4,0.4-0.7,0.8-0.6l4.9,0.4c0.4,0,0.7,0.4,0.6,0.8&#10;&#9;&#9;C297.7,125.6,297.4,125.8,297,125.8z"/>
</g>
<g id="Screen_smartphone-data-27">
	<polygon class="st2_smartphone-data-27" points="376.7,145.2 248.3,134.1 199.1,319.9 325.6,336.7 &#9;"/>
	<path class="st2_smartphone-data-27" d="M325.6,336.9L325.6,336.9L199,320.1c-0.1,0-0.1,0-0.1-0.1c0-0.1,0-0.1,0-0.2l49.3-185.8c0-0.1,0.1-0.2,0.2-0.2&#10;&#9;&#9;L376.8,145c0.1,0,0.1,0,0.2,0.1c0,0.1,0,0.1,0,0.2l-51.1,191.5C325.8,336.9,325.7,336.9,325.6,336.9L325.6,336.9z M199.3,319.7&#10;&#9;&#9;l126.1,16.8l51-191l-128-11.1L199.3,319.7z"/>
</g>
<g id="Icons_smartphone-data-27">
	<line class="st3_smartphone-data-27" x1="219.4" y1="279.6" x2="264.4" y2="283.6"/>
	<path class="st0_smartphone-data-27" d="M264.4,284.3L264.4,284.3l-45.1-3.9c-0.4,0-0.7-0.4-0.6-0.8c0-0.4,0.4-0.7,0.8-0.6l0,0l45,3.9&#10;&#9;&#9;c0.4,0,0.7,0.3,0.7,0.7C265.2,284,264.8,284.3,264.4,284.3L264.4,284.3z"/>
	<line class="st3_smartphone-data-27" x1="216.5" y1="287.7" x2="252.8" y2="291"/>
	<path class="st0_smartphone-data-27" d="M252.8,291.7L252.8,291.7l-36.3-3.3c-0.4-0.1-0.6-0.4-0.6-0.8c0.1-0.3,0.4-0.6,0.7-0.6l36.3,3.3&#10;&#9;&#9;c0.4,0,0.7,0.3,0.6,0.7c0,0,0,0,0,0C253.4,291.4,253.1,291.7,252.8,291.7L252.8,291.7z"/>
	<line class="st3_smartphone-data-27" x1="306.5" y1="202.6" x2="351.5" y2="206.5"/>
	<path class="st0_smartphone-data-27" d="M351.5,207.2L351.5,207.2l-45.1-3.9c-0.4,0-0.7-0.4-0.6-0.8c0-0.4,0.4-0.7,0.8-0.6l45,3.9&#10;&#9;&#9;c0.4,0,0.7,0.3,0.7,0.7C352.2,206.9,351.9,207.2,351.5,207.2z"/>
	<line class="st3_smartphone-data-27" x1="303.6" y1="210.7" x2="339.8" y2="213.9"/>
	<path class="st0_smartphone-data-27" d="M339.8,214.6L339.8,214.6l-36.3-3.3c-0.4-0.1-0.6-0.4-0.6-0.8c0.1-0.3,0.4-0.6,0.7-0.6l36.3,3.3&#10;&#9;&#9;c0.4,0,0.7,0.3,0.6,0.7c0,0,0,0,0,0C340.5,214.4,340.2,214.7,339.8,214.6L339.8,214.6z"/>
	<path class="st1_smartphone-data-27" d="M249.3,178l41.6,2.7c2.2,0.1,3.8,2,3.7,4.1c0,0.2,0,0.4-0.1,0.6l-6.6,25.2c-0.6,2.5-2.9,4.3-5.5,4.1l-41.2-2.8&#10;&#9;&#9;c-2.1-0.2-3.7-2-3.6-4.2c0-0.2,0.1-0.5,0.1-0.7L244,182C244.6,179.5,246.9,177.9,249.3,178L249.3,178z"/>
	<path class="st0_smartphone-data-27" d="M282.8,215.5c-0.2,0-0.3,0-0.5,0l-41.1-2.8c-1.3-0.1-2.6-0.8-3.4-1.9c-0.8-1.1-1.1-2.5-0.7-3.9l6.2-25.2&#10;&#9;&#9;c0.7-2.8,3.3-4.7,6.1-4.5l41.5,2.7c1.4,0.1,2.6,0.8,3.4,1.9c0.8,1.1,1.1,2.5,0.8,3.8l-6.6,25.2&#10;&#9;&#9;C287.9,213.5,285.6,215.4,282.8,215.5L282.8,215.5z M248.9,178.7c-2,0-3.8,1.4-4.3,3.4l-6.2,25.2c-0.2,0.9,0,1.9,0.5,2.7&#10;&#9;&#9;c0.6,0.7,1.4,1.2,2.3,1.3l41.1,2.8c2.2,0.2,4.3-1.3,4.7-3.5l6.6-25.2c0.2-0.9,0-1.9-0.6-2.6c-0.6-0.8-1.5-1.2-2.4-1.3l-41.5-2.7&#10;&#9;&#9;L248.9,178.7L248.9,178.7z"/>
	<path class="st2_smartphone-data-27" d="M262.6,208.3c0.6-0.5,1.3-1,1.9-1.4c1.8-1.3,3.5-2.6,5.3-3.9c1.2-0.9,2.4-1.7,3.4-2.7c1-0.8,1.8-1.8,2.5-2.9&#10;&#9;&#9;c0.4-0.7,0.8-1.5,1-2.3c0.2-0.7,0.4-1.4,0.4-2.2c0.4-2.4-1-4.7-3.3-5.6c-2.4-0.9-5.1-0.4-7,1.4c-0.5,0.4-1,0.9-1.4,1.4l-0.1,0.1&#10;&#9;&#9;l-0.1-0.1c-0.5-1.1-1.4-2.1-2.5-2.7c-1-0.6-2.1-0.8-3.2-0.8c-2.9,0.1-5.4,2-6.4,4.8c-0.2,0.7-0.4,1.4-0.4,2.2&#10;&#9;&#9;c-0.1,0.8-0.1,1.5,0,2.3c0.2,1.1,0.6,2.2,1.2,3.2c0.7,1,1.4,1.9,2.2,2.7c1.2,1.3,2.5,2.6,3.7,3.9c0.8,0.9,1.6,1.8,2.5,2.7&#10;&#9;&#9;L262.6,208.3L262.6,208.3z"/>
	<path class="st1_smartphone-data-27" d="M236.5,235.9l31.5,3.5c1.6,0.2,2.8,1.7,2.7,3.3c0,0.2,0,0.3-0.1,0.5l-5.9,18.9c-0.5,1.9-2.3,3.1-4.3,2.9&#10;&#9;&#9;l-31.2-3.5c-1.6-0.2-2.8-1.7-2.6-3.4c0-0.2,0.1-0.3,0.1-0.4l5.5-18.9C232.8,236.9,234.6,235.7,236.5,235.9L236.5,235.9z"/>
	<path class="st0_smartphone-data-27" d="M260.9,265.8c-0.2,0-0.4,0-0.6,0l-31.2-3.5c-1.1-0.1-2-0.7-2.6-1.6c-0.6-0.9-0.8-2.1-0.4-3.1l5.5-18.9&#10;&#9;&#9;c0.7-2.2,2.8-3.6,5-3.3l31.5,3.5c1.1,0.1,2.1,0.7,2.7,1.6c0.6,0.9,0.8,2,0.5,3l-5.9,19C264.8,264.4,263,265.8,260.9,265.8&#10;&#9;&#9;L260.9,265.8z M236,236.6c-1.4,0-2.7,1-3.1,2.3l-5.5,18.9c-0.2,0.7-0.1,1.4,0.3,2c0.4,0.6,1,0.9,1.6,1l31.2,3.5&#10;&#9;&#9;c1.6,0.2,3.1-0.8,3.5-2.4l5.9-19c0.2-0.6,0-1.3-0.3-1.9c-0.4-0.6-1-0.9-1.7-1l-31.5-3.5l0,0C236.3,236.7,236.1,236.7,236,236.6&#10;&#9;&#9;L236,236.6z"/>
	<path class="st1_smartphone-data-27" d="M300.6,223.7l43.7,4.4c2,0.2,3.3,1.8,2.8,3.6l-7.2,26.9c-0.7,1.9-2.6,3-4.6,2.7l-43.6-5.6&#10;&#9;&#9;c-1.5-0.1-2.7-1.4-2.7-3c0-0.2,0-0.4,0.1-0.6l7.2-25.8C296.9,224.6,298.7,223.5,300.6,223.7L300.6,223.7z"/>
	<path class="st0_smartphone-data-27" d="M335.8,262.1c-0.2,0-0.4,0-0.6,0l-43.6-5.6c-1.1-0.1-2.1-0.7-2.7-1.6c-0.5-0.8-0.7-1.8-0.4-2.8l7.2-25.8&#10;&#9;&#9;c0.7-2.1,2.8-3.5,5-3.2l43.7,4.4c1.2,0.1,2.3,0.7,3,1.6c0.6,0.8,0.7,1.8,0.5,2.8l-7.2,26.9C339.8,260.8,337.9,262.1,335.8,262.1&#10;&#9;&#9;L335.8,262.1z M300.2,224.4c-1.4,0-2.7,0.9-3.2,2.2l-7.2,25.8c-0.2,0.6-0.1,1.2,0.2,1.6c0.4,0.6,1,0.9,1.7,1l43.6,5.6&#10;&#9;&#9;c1.6,0.3,3.2-0.7,3.8-2.2l7.2-26.9c0.2-0.6,0.1-1.1-0.3-1.6c-0.5-0.6-1.2-1-2-1l-43.7-4.4l0,0L300.2,224.4L300.2,224.4z"/>
	<polygon class="st2_smartphone-data-27" points="323.1,253.4 328.3,254.1 332,240.6 326.8,240 &#9;"/>
	<path class="st2_smartphone-data-27" d="M328.3,254.3L328.3,254.3l-5.2-0.6c-0.1,0-0.1,0-0.2-0.1c0-0.1,0-0.1,0-0.2l3.6-13.4c0-0.1,0.1-0.2,0.2-0.2&#10;&#9;&#9;l5.2,0.6c0.1,0,0.1,0,0.2,0.1c0,0.1,0,0.1,0,0.2l-3.7,13.5C328.5,254.2,328.4,254.3,328.3,254.3L328.3,254.3z M323.4,253.3l4.7,0.6&#10;&#9;&#9;l3.5-13.1l-4.7-0.5L323.4,253.3z"/>
	<path class="st2_smartphone-data-27" d="M324.5,240.9c0,0-4.2-1.5-5.3-4.1s-0.4-6.9-1-7.2c-1.2-0.3-2.5,0.1-3.2,1.1c-1,1.3-1.6,5.2-0.8,7.9&#10;&#9;&#9;c0,0-5.6-0.7-8.1-1s-3.6,1.8-2.4,2.9c0,0-2,0-1.8,1.9s1,2,2.1,2.1c0,0-1.5,0.2-1.4,1.5s1.7,1.9,1.7,1.9s-1.8,0.6-1,2.1&#10;&#9;&#9;s3.5,1.8,9.8,2.2s8.5-0.8,8.5-0.8L324.5,240.9L324.5,240.9z"/>
	<path class="st2_smartphone-data-27" d="M315.7,252.5c-0.8,0-1.6,0-2.6-0.1c-6.3-0.4-9.2-0.6-10-2.3c-0.2-0.4-0.3-0.9-0.1-1.4c0.2-0.4,0.4-0.6,0.8-0.8&#10;&#9;&#9;c-0.8-0.3-1.3-1.1-1.4-1.9c0-0.6,0.2-1.2,0.8-1.5c-0.8-0.2-1.2-0.7-1.4-2.2c-0.1-0.5,0-1,0.4-1.4c0.3-0.3,0.7-0.6,1.2-0.6&#10;&#9;&#9;c-0.3-0.5-0.4-1.1-0.1-1.6c0.6-1.1,1.8-1.6,3-1.4c2.1,0.2,6.5,0.8,7.8,0.9c-0.7-2.7-0.1-6.5,0.9-7.8c0.8-1.1,2.2-1.6,3.5-1.2&#10;&#9;&#9;c0.4,0.2,0.4,0.8,0.4,2.3c-0.1,1.7,0.1,3.4,0.7,5c1.1,2.5,5.2,4,5.2,4c0.1,0,0.2,0.2,0.1,0.3l-2.9,10.6c0,0.1-0.1,0.1-0.1,0.1&#10;&#9;&#9;C321.7,251.6,320.2,252.5,315.7,252.5L315.7,252.5z M305.7,237.8c-0.9-0.1-1.7,0.4-2.1,1.1c-0.2,0.5-0.1,1.1,0.3,1.4&#10;&#9;&#9;c0.1,0.1,0.1,0.2,0,0.3c0,0-0.1,0.1-0.2,0.1c-0.5,0-1,0.2-1.3,0.5c-0.2,0.3-0.3,0.7-0.3,1.1c0.2,1.7,0.8,1.8,1.9,1.9&#10;&#9;&#9;c0.1,0,0.2,0.1,0.2,0.2s-0.1,0.2-0.2,0.2c0,0-1.2,0.2-1.2,1.3s1.5,1.7,1.5,1.7c0.1,0,0.2,0.2,0.1,0.3c0,0.1-0.1,0.1-0.1,0.1&#10;&#9;&#9;c-0.4,0.1-0.8,0.4-1,0.8c-0.1,0.3-0.1,0.7,0.1,1c0.7,1.5,3.5,1.7,9.6,2.1c5.6,0.4,7.9-0.5,8.4-0.7l2.8-10.2&#10;&#9;&#9;c-0.8-0.3-4.2-1.8-5.3-4.2c-0.6-1.7-0.8-3.4-0.7-5.2c0.1-0.7,0-1.3-0.2-1.9c-1.1-0.3-2.3,0.1-3,1c-1,1.3-1.5,5.2-0.7,7.8&#10;&#9;&#9;c0,0.1,0,0.1,0,0.2c0,0.1-0.1,0.1-0.2,0.1c0,0-5.6-0.7-8.1-1C305.9,237.8,305.8,237.8,305.7,237.8L305.7,237.8z"/>
	<path class="st1_smartphone-data-27" d="M270.5,316.7l47.5,5.5c3.6,0.2,6.9-2.1,7.8-5.6l7.5-28.3c0.9-3.5-1.1-6.8-4.5-7.2l-47.7-6.1&#10;&#9;&#9;c-3.7-0.3-7.1,2.1-8,5.7l-7.3,28.8c-0.9,2.9,0.7,6.1,3.7,7C269.8,316.6,270.2,316.7,270.5,316.7L270.5,316.7z"/>
	<path class="st0_smartphone-data-27" d="M318.8,323c-0.3,0-0.5,0-0.8,0l-47.5-5.5l0,0c-1.8-0.2-3.4-1.2-4.4-2.7c-1.1-1.6-1.4-3.6-0.9-5.5l7.3-28.8&#10;&#9;&#9;c1-4,4.8-6.6,8.8-6.2l47.7,6.1c1.7,0.2,3.3,1.2,4.3,2.6c1,1.6,1.3,3.6,0.8,5.5l-7.5,28.3C325.6,320.3,322.5,322.8,318.8,323&#10;&#9;&#9;L318.8,323z M270.6,316l47.5,5.5c3.3,0.2,6.2-1.9,7.1-5.1l7.5-28.3c0.4-1.5,0.2-3.1-0.6-4.4c-0.8-1.1-2-1.8-3.3-2l-47.7-6.1&#10;&#9;&#9;c-3.4-0.3-6.4,1.9-7.3,5.2l-7.3,28.8c-0.4,1.5-0.2,3,0.7,4.3C267.9,315.1,269.2,315.9,270.6,316L270.6,316L270.6,316z"/>
	<path class="st2_smartphone-data-27" d="M285.9,298.1l16.9,13.7c1.2,1,3.2,0.1,3.6-1.5l5.9-22.4c0.3-1-0.2-2.1-1.3-2.4c-0.5-0.1-1-0.1-1.4,0.1&#10;&#9;&#9;l-22.7,8.8C285.2,294.9,284.7,297.1,285.9,298.1L285.9,298.1z"/>
	<path class="st1_smartphone-data-27" d="M302.8,188.2l50.3,5.2c1.9,0.1,3.5-1.2,3.9-3l8.2-33.6c0.5-1.4-0.3-2.9-1.7-3.4c-0.2-0.1-0.4-0.1-0.6-0.1&#10;&#9;&#9;l-50.2-4.1c-1.8,0-3.3,1.3-3.7,3l-8.3,32.6C300.3,186.5,301.2,188.1,302.8,188.2L302.8,188.2z"/>
	<path class="st0_smartphone-data-27" d="M312.5,149.1h0.2l50.2,4.1c1.5,0.1,2.6,1.5,2.4,2.9c0,0.2-0.1,0.4-0.1,0.6l-8.1,33.6c-0.4,1.7-1.9,2.9-3.6,3&#10;&#9;&#9;c-0.1,0-0.2,0-0.3,0l-50.3-5.2c-1.6-0.2-2.5-1.8-2.1-3.6L309,152C309.4,150.3,310.8,149.1,312.5,149.1 M312.5,147.6&#10;&#9;&#9;c-2.3,0.1-4.3,1.7-4.9,4l-8.3,32.6c-0.4,1.3-0.1,2.7,0.6,3.8c0.6,0.9,1.6,1.5,2.7,1.6l50.3,5.2c0.1,0,0.3,0,0.5,0&#10;&#9;&#9;c2.4-0.1,4.5-1.8,5-4.1l8.2-33.7c0.3-1.3,0.1-2.6-0.6-3.7c-0.7-0.9-1.7-1.5-2.9-1.6l-50.2-4.1L312.5,147.6L312.5,147.6z"/>
	<path class="st2_smartphone-data-27" d="M330.8,178.6c-0.2,0-0.4-0.1-0.6-0.3l-20.3-28.1c-0.2-0.3-0.2-0.8,0.2-1s0.8-0.2,1,0.2l20,27.6l33.4-23.2&#10;&#9;&#9;c0.3-0.2,0.8-0.1,1,0.2c0.2,0.3,0.1,0.8-0.2,1l-34,23.6C331.1,178.6,330.9,178.7,330.8,178.6L330.8,178.6z"/>
	<path class="st2_smartphone-data-27" d="M301,187.9c-0.4,0-0.7-0.3-0.7-0.7c0-0.2,0.1-0.5,0.3-0.6l24.8-16.1c0.3-0.2,0.8-0.1,1,0.2s0.1,0.8-0.2,1l0,0&#10;&#9;&#9;l-24.8,16.1C301.3,187.8,301.1,187.9,301,187.9z"/>
	<path class="st2_smartphone-data-27" d="M355.4,193.5c-0.2,0-0.4-0.1-0.5-0.3l-16.5-20.5c-0.3-0.3-0.3-0.7,0-1c0.3-0.3,0.7-0.3,1,0&#10;&#9;&#9;c0,0,0.1,0.1,0.1,0.1l16.5,20.5c0.2,0.3,0.2,0.7-0.1,1c0,0,0,0,0,0C355.7,193.5,355.5,193.5,355.4,193.5L355.4,193.5z"/>
	<line class="st3_smartphone-data-27" x1="254.6" y1="147.7" x2="299.6" y2="151.6"/>
	<path class="st0_smartphone-data-27" d="M299.6,152.3L299.6,152.3l-45.1-3.9c-0.4,0-0.7-0.4-0.6-0.8s0.4-0.7,0.8-0.6l0,0l45,3.9c0.4,0,0.7,0.3,0.7,0.7&#10;&#9;&#9;C300.3,152,300,152.3,299.6,152.3L299.6,152.3z"/>
	<line class="st3_smartphone-data-27" x1="251.6" y1="155.8" x2="287.9" y2="159"/>
	<path class="st0_smartphone-data-27" d="M287.9,159.7L287.9,159.7l-36.3-3.3c-0.4,0-0.7-0.3-0.7-0.7c0-0.4,0.3-0.7,0.7-0.7c0,0,0.1,0,0.1,0l36.3,3.3&#10;&#9;&#9;c0.4,0,0.7,0.3,0.6,0.7c0,0,0,0,0,0C288.6,159.5,288.3,159.7,287.9,159.7L287.9,159.7z"/>
</g>
<g id="Character_smartphone-data-27">
	<path class="st1_smartphone-data-27" d="M202.7,255.7c3.4-6.8,8.1-12.9,13.8-18c9.2-7.9,14.7-13.7,11.8-15.3s-12.4,5.2-12.4,5.2l7.2-26.5&#10;&#9;&#9;c0,0-15.9,10.5-20.4,19.4s-13.4,27.7-13.4,27.7L202.7,255.7L202.7,255.7z"/>
	<path class="st0_smartphone-data-27" d="M202.7,256.4c-0.1,0-0.2,0-0.3-0.1l-13.4-7.4c-0.3-0.2-0.4-0.6-0.3-0.9c0.1-0.2,9-18.9,13.4-27.7&#10;&#9;&#9;s20-19.2,20.7-19.7c0.2-0.2,0.6-0.2,0.8,0c0.2,0.2,0.3,0.5,0.3,0.8l-6.7,24.6c3.1-2,9.1-5.6,11.6-4.2c0.6,0.3,1.1,0.9,1.1,1.6&#10;&#9;&#9;c0.3,2.4-3.4,6.7-12.8,14.8c-5.6,5-10.3,11.1-13.7,17.8c-0.1,0.2-0.2,0.3-0.4,0.4C202.8,256.4,202.7,256.4,202.7,256.4z M190.1,248&#10;&#9;&#9;l12.2,6.8c3.5-6.6,8.1-12.6,13.7-17.6c3.1-2.7,12.6-10.9,12.3-13.6c0-0.2-0.2-0.4-0.4-0.5c-1.7-0.9-7.9,2.4-11.7,5.2&#10;&#9;&#9;c-0.2,0.2-0.6,0.2-0.8,0c-0.2-0.2-0.3-0.5-0.3-0.8l6.7-24.6c-4.1,2.9-15.1,11.1-18.6,18.1C199.3,228.8,191.7,244.7,190.1,248&#10;&#9;&#9;L190.1,248z"/>
	<path class="st1_smartphone-data-27" d="M189.5,158.4c0,0,9.5,15.6,7.3,18.7s-9,0.7-9,0.7"/>
	<path class="st0_smartphone-data-27" d="M192.7,179.4c-1.8,0-3.5-0.3-5.2-0.9c-0.4-0.1-0.6-0.5-0.5-0.9s0.5-0.6,0.9-0.5c0,0,0,0,0.1,0&#10;&#9;&#9;c1.8,0.6,6.7,1.7,8.2-0.5c1.3-1.9-3.5-11.6-7.3-17.9c-0.2-0.3-0.1-0.8,0.3-1c0.3-0.2,0.7-0.1,0.9,0.2c1.6,2.7,9.6,16.2,7.2,19.5&#10;&#9;&#9;C196.4,179,194.5,179.4,192.7,179.4L192.7,179.4z"/>
	<path class="st1_smartphone-data-27" d="M134.9,187.2c-6.9,0.1-13.1-2.3-20.7-7c-2.2-1.3-4.6-3.4-3.9-5.8c0.4-0.8,0.7-1.6,0.9-2.4&#10;&#9;&#9;c0.1-1.4-1.4-2.4-2.5-3.2c-5.5-4.1-6.7-11.9-2.5-17.5c1.7-2.3,4.2-3.9,6.9-4.6c-5.9-5.9-5.9-15.4,0-21.3c2.4-2.4,5.6-4,9-4.3&#10;&#9;&#9;c-2,0.2,2.2-11.2,2.8-12.3c2.5-3.9,6.3-6.9,10.7-8.4c5.9-2,12.4-1.3,17.7,1.9c1.2-3.1,4.7-4.8,8-4.9s6.5,1,9.6,2.2&#10;&#9;&#9;c3.7,1.4,7.7,3.2,9.3,6.8c0.2,0.8,0.6,1.5,1.1,2.2c0.8,0.7,1.8,1.1,2.8,1.3c11.1,3.5,13.3,20.1,5.7,27.2c-1.3,1.2-2.8,0.6-3.9,2.2&#10;&#9;&#9;c-0.7,1-0.8,3.9-1.2,5.1c-1,3.2-2.3,6.2-3.9,9.1c-3.4,6.2-8,11.6-12.7,16.7c-5.9,6.6-13.3,11.6-21.6,14.7&#10;&#9;&#9;C142.7,186.3,138.9,187,134.9,187.2L134.9,187.2z"/>
	<path class="st0_smartphone-data-27" d="M134.3,187.9c-6.3,0-12.3-2.1-20.5-7.1c-4.3-2.6-4.7-5-4.2-6.6c0.1-0.4,0.3-0.7,0.4-1.1&#10;&#9;&#9;c0.2-0.4,0.3-0.8,0.4-1.2c0-0.9-1-1.7-2-2.4l-0.3-0.2c-5.8-4.3-7-12.6-2.7-18.4c1.6-2.1,3.7-3.7,6.2-4.6c-5.7-6.6-5-16.5,1.6-22.2&#10;&#9;&#9;c2.1-1.8,4.7-3.1,7.5-3.6c-0.3-3,3-11.5,3.4-12.1c2.6-4.1,6.5-7.1,11.1-8.7c5.8-2,12.3-1.4,17.6,1.6c1.6-3,5.2-4.5,8.3-4.7&#10;&#9;&#9;c3.4-0.2,6.6,1,9.9,2.2c3.8,1.4,7.9,3.3,9.6,7.2l0.2,0.6c0.2,0.5,0.4,1,0.8,1.4c0.6,0.5,1.3,0.8,2,1l0.4,0.1c5,1.6,8.8,6,10.1,11.9&#10;&#9;&#9;c1.4,6.3-0.2,12.8-4.2,16.5c-0.6,0.5-1.4,0.9-2.2,1.1c-0.7,0.1-1.3,0.5-1.7,1c-0.4,1-0.7,2-0.7,3c-0.1,0.7-0.2,1.3-0.4,2&#10;&#9;&#9;c-1,3.2-2.3,6.3-3.9,9.2c-3.4,6.3-8.1,11.8-12.8,16.9c-6,6.7-13.5,11.8-21.9,14.9c-3.8,1.4-7.7,2.2-11.7,2.3h-0.6L134.3,187.9z&#10;&#9;&#9; M122.1,121.8c-7.9,0.9-13.6,7.9-12.7,15.8c0.4,3.3,1.8,6.3,4.1,8.6c0.2,0.2,0.2,0.4,0.2,0.7c-0.1,0.2-0.3,0.4-0.5,0.5&#10;&#9;&#9;c-6.3,1.6-10.1,8-8.6,14.3c0.7,2.6,2.2,5,4.4,6.6l0.3,0.2c1.2,0.9,2.6,1.9,2.5,3.6c-0.1,0.6-0.2,1.2-0.5,1.7&#10;&#9;&#9;c-0.1,0.3-0.3,0.5-0.3,0.8c-0.6,2,1.7,3.8,3.6,5c8.2,5,14.1,7,20.3,6.9l0,0c3.9-0.2,7.7-0.9,11.3-2.3c8.2-3,15.5-8,21.3-14.5&#10;&#9;&#9;c4.6-5,9.2-10.5,12.6-16.6c1.6-2.9,2.9-5.9,3.8-9c0.1-0.6,0.3-1.2,0.3-1.8c0.1-1.2,0.4-2.5,1-3.6c0.6-0.8,1.5-1.3,2.4-1.5&#10;&#9;&#9;c0.6-0.1,1.1-0.4,1.6-0.8c3.6-3.4,5.1-9.3,3.8-15.2c-1.2-5.5-4.6-9.4-9.2-10.9l-0.4-0.1c-1-0.2-1.9-0.6-2.7-1.3&#10;&#9;&#9;c-0.4-0.5-0.8-1.2-1-1.8c-0.1-0.2-0.1-0.3-0.2-0.5c-1.5-3.4-5.4-5.1-8.9-6.4c-3.1-1.2-6.2-2.3-9.3-2.1c-2.8,0.1-6.2,1.6-7.4,4.5&#10;&#9;&#9;c-0.1,0.4-0.6,0.5-0.9,0.4c0,0-0.1,0-0.1,0c-5.2-3.1-11.4-3.8-17.1-1.9c-4.3,1.5-7.9,4.3-10.4,8.1c-0.6,1-3.6,9.6-3.2,11.2&#10;&#9;&#9;c0.4,0.1,0.6,0.5,0.5,0.9C122.6,121.6,122.4,121.8,122.1,121.8L122.1,121.8L122.1,121.8z"/>
	<path class="st1_smartphone-data-27" d="M188.1,137.5c0.5,0.3,0.9,0.6,1.3,1.1c1.5,2,2.5,4.4,2.8,6.9c0.8,5.1-0.1,10.4-0.4,15.5&#10;&#9;&#9;c-0.5,10.1-1.2,20.2-2.1,30.3c-0.6,6.4-17.2,5.9-20.1,3.9l1.6,25.4l-34.4-14.7l2.2-20.9c0,0,11.3,0.5,18.3-12.3&#10;&#9;&#9;c2-3.9,3.4-8,4.2-12.3c0.8-3.6,2.5-8.8,2.4-12.5c-0.1-1.7-0.5-3.3-1.1-4.8c1.5,0.5,3.1,1.1,4.6,0.4c1.1-0.6,1.9-1.6,2.1-2.8&#10;&#9;&#9;c0.2-1.2,0.3-2.4,0.1-3.6c2.9,1.8,6.7,0.8,8.5-2.1c0.1-0.1,0.1-0.3,0.2-0.4c0.4,1.6,2.3,2.1,3.9,2.4&#10;&#9;&#9;C184.7,137.3,186.4,136.6,188.1,137.5L188.1,137.5z"/>
	<path class="st0_smartphone-data-27" d="M171.2,221.3c-0.1,0-0.2,0-0.3-0.1l-34.4-14.7c-0.3-0.1-0.5-0.4-0.4-0.7l2.2-20.9c0-0.4,0.4-0.6,0.7-0.6&#10;&#9;&#9;c0.4,0,11,0.3,17.6-11.9c1.9-3.8,3.3-7.9,4.1-12.1c0.2-1,0.5-2.1,0.8-3.2c0.8-3,1.7-6.5,1.6-9.1c-0.1-1.6-0.4-3.1-1-4.6&#10;&#9;&#9;c-0.1-0.4,0.1-0.8,0.5-0.9c0.1,0,0.3,0,0.5,0c1.4,0.5,2.9,1,4,0.5c0.9-0.5,1.5-1.4,1.7-2.4c0.2-1.1,0.2-2.3,0.1-3.4&#10;&#9;&#9;c0-0.3,0.1-0.5,0.4-0.7c0.2-0.1,0.5-0.1,0.7,0c2.6,1.6,6,0.7,7.5-1.9c0.1-0.1,0.1-0.2,0.1-0.3c0.1-0.3,0.4-0.4,0.7-0.4&#10;&#9;&#9;c0.3,0,0.5,0.2,0.6,0.5c0.2,0.9,1.3,1.5,3.4,1.9c0.8,0.1,1.7,0.1,2.5,0.1c1.2-0.1,2.4,0.1,3.5,0.6l0,0c0.6,0.3,1.1,0.7,1.5,1.2&#10;&#9;&#9;c1.6,2.1,2.7,4.6,2.9,7.2c0.5,3.7,0.5,7.5,0,11.2c-0.1,1.5-0.3,3-0.3,4.4c-0.5,10.1-1.2,20.3-2.1,30.3c-0.1,1.2-0.8,3-3.6,4.3&#10;&#9;&#9;c-4.6,2.1-12.9,1.9-16.4,0.7l1.6,24.3c0,0.2-0.1,0.5-0.3,0.6c-0.1,0.1-0.3,0.1-0.4,0.1L171.2,221.3z M137.6,205.4l32.9,14.1&#10;&#9;&#9;l-1.6-24.3c0-0.4,0.3-0.7,0.6-0.8c0.2,0,0.3,0,0.5,0.1c1.9,1.3,11.3,2,16.2-0.2c1.7-0.8,2.7-1.8,2.8-3.1c0.9-10,1.6-20.2,2.1-30.3&#10;&#9;&#9;c0.1-1.5,0.2-3,0.3-4.5c0.5-3.6,0.5-7.3,0.1-10.9c-0.2-2.4-1.1-4.7-2.6-6.5c-0.3-0.4-0.7-0.7-1.1-0.9c-0.9-0.4-1.9-0.5-2.8-0.4&#10;&#9;&#9;c-0.9,0-1.8,0-2.7-0.1c-1.4-0.1-2.8-0.7-3.9-1.7c-1.9,2.4-5.1,3.3-7.9,2.2c0,0.9,0,1.8-0.2,2.6c-0.3,1.4-1.2,2.7-2.5,3.3&#10;&#9;&#9;c-1.2,0.5-2.5,0.5-3.8,0c0.4,1.2,0.6,2.4,0.7,3.7c0.1,2.8-0.9,6.4-1.7,9.5c-0.3,1.1-0.6,2.2-0.8,3.2c-0.8,4.4-2.2,8.6-4.2,12.5&#10;&#9;&#9;c-6.1,11.3-15.7,12.5-18.3,12.7L137.6,205.4L137.6,205.4z"/>
	<path class="st1_smartphone-data-27" d="M169.9,163.3c0.1-2.5-1.3-4.9-2.6-7.1c-0.9-1.7-2.1-3.3-3.5-4.7c-1.4-1.4-3.4-2.1-5.4-1.9&#10;&#9;&#9;c-1.7,0.4-3.2,1.5-4.1,3c-0.9,1.5-1.4,3.2-1.5,5c-0.6,7.7,2.9,15.2,9.3,19.6l-0.5-0.6"/>
	<path class="st0_smartphone-data-27" d="M162.2,177.9c-0.1,0-0.3,0-0.4-0.1c-6.6-4.6-10.2-12.3-9.6-20.3c0.1-1.9,0.6-3.7,1.6-5.3&#10;&#9;&#9;c1-1.7,2.6-2.9,4.6-3.3c2.2-0.3,4.4,0.5,6,2c1.5,1.4,2.7,3.1,3.6,4.9c1.2,2.1,2.7,4.6,2.7,7.4c0,0.4-0.3,0.7-0.7,0.7&#10;&#9;&#9;c-0.4,0-0.7-0.3-0.7-0.7c0.1-2.4-1.3-4.8-2.5-6.7c-0.9-1.7-2-3.2-3.4-4.6c-1.3-1.3-3-1.9-4.8-1.7c-1.5,0.3-2.8,1.3-3.6,2.7&#10;&#9;&#9;c-0.8,1.4-1.3,3-1.4,4.7c-0.6,7,2.4,13.9,7.9,18.3c0.2,0,0.5,0.1,0.6,0.2l0.5,0.6c0.3,0.3,0.2,0.7-0.1,1&#10;&#9;&#9;C162.5,177.8,162.4,177.9,162.2,177.9L162.2,177.9z"/>
	<path class="st1_smartphone-data-27" d="M129.6,211.8l3.4-11.1l44.5,4.3l2.5,10.2C180,215.2,156.7,226.3,129.6,211.8L129.6,211.8z"/>
	<path class="st0_smartphone-data-27" d="M158.7,219.9c-10.3,0-20.4-2.6-29.5-7.5c-0.3-0.2-0.4-0.5-0.3-0.8l3.4-11.1c0.1-0.3,0.4-0.5,0.7-0.5l44.5,4.3&#10;&#9;&#9;c0.3,0,0.5,0.2,0.6,0.5l2.6,10.2c0.1,0.3-0.1,0.7-0.4,0.8C180.2,215.9,171.5,219.9,158.7,219.9L158.7,219.9z M130.4,211.5&#10;&#9;&#9;c24.1,12.6,45.3,4.8,48.8,3.4l-2.3-9.1l-43.5-4.2L130.4,211.5z"/>
	
		<ellipse transform="matrix(0.9999 -1.570732e-02 1.570732e-02 0.9999 -2.3699 2.954)" class="st0_smartphone-data-27" cx="186.9" cy="152.3" rx="1.4" ry="3.6"/>
	<path class="st4_smartphone-data-27 targetColor" d="M112.4,394.5c0,0-21.3-142.5-2.6-168.8c10.5-14.8,27.5-15.3,43-14.7c12.1,0.5,22.8-0.4,32.1,7.1&#10;&#9;&#9;c21.3,17,52.3,168.3,52.3,168.3S191.3,418.4,112.4,394.5L112.4,394.5z" style="fill: rgb(0, 102, 255);"/>
	<path class="st1_smartphone-data-27" d="M254.5,201l5.3-1.7l6.7,20.3c0.3,1-0.2,2-1.1,2.4c0,0,0,0-0.1,0l-1.7,0.6c-1,0.3-2-0.2-2.4-1.2L254.5,201z"/>
	<path class="st0_smartphone-data-27" d="M263.4,223.1c-1.4,0-2.7-0.9-3.1-2.3l-6.4-19.6c-0.1-0.4,0.1-0.8,0.4-0.9l5.3-1.7c0.2-0.1,0.4-0.1,0.5,0&#10;&#9;&#9;c0.2,0.1,0.3,0.2,0.4,0.4l6.4,19.6c0.3,0.8,0.2,1.7-0.2,2.5c-0.4,0.8-1.1,1.4-1.9,1.6l-0.3,0.1C264.1,223,263.7,223.1,263.4,223.1z&#10;&#9;&#9; M255.4,201.4l6.2,19c0.3,1,1.4,1.5,2.4,1.2l0.3-0.1l0,0c0.5-0.2,0.9-0.5,1.1-0.9c0.2-0.4,0.3-1,0.1-1.4l-6.2-19L255.4,201.4&#10;&#9;&#9;L255.4,201.4z"/>
	<rect x="250" y="182.1" transform="matrix(0.9501 -0.312 0.312 0.9501 -47.2722 88.9938)" class="st1_smartphone-data-27" width="8.9" height="20.2"/>
	<path class="st0_smartphone-data-27" d="M253.4,203.9c-0.1,0-0.2,0-0.3-0.1c-0.2-0.1-0.3-0.2-0.4-0.4l-6.3-19.2c-0.1-0.4,0.1-0.8,0.4-0.9l8.5-2.8&#10;&#9;&#9;c0.2-0.1,0.4-0.1,0.5,0c0.2,0.1,0.3,0.2,0.3,0.4l6.3,19.2c0.1,0.2,0.1,0.4,0,0.5c-0.1,0.2-0.2,0.3-0.4,0.4l-8.5,2.8&#10;&#9;&#9;C253.6,203.8,253.5,203.8,253.4,203.9L253.4,203.9z M248,184.4l5.9,17.9l7.1-2.3l-5.9-17.9L248,184.4z"/>
	<path class="st1_smartphone-data-27" d="M259.9,215.8l4.2-1.4c1.2-0.4,2.5,0.3,2.8,1.4l9.6,29.1c0.4,1.2-0.3,2.5-1.4,2.8l-4.2,1.4&#10;&#9;&#9;c-1.2,0.4-2.5-0.3-2.8-1.4l-9.6-29.1C258.1,217.5,258.7,216.2,259.9,215.8z"/>
	<path class="st0_smartphone-data-27" d="M270.7,249.7c-0.6,0-1.2-0.1-1.7-0.4c-0.9-0.5-1.6-1.3-1.9-2.2l-9-27.4c-0.7-2,0.4-4.2,2.5-4.9c0,0,0,0,0,0&#10;&#9;&#9;l2.5-0.8c2-0.7,4.2,0.4,4.9,2.5c0,0,0,0,0,0l9,27.4c0.3,1,0.2,2-0.2,2.9c-0.5,0.9-1.3,1.6-2.2,1.9l-2.5,0.8&#10;&#9;&#9;C271.5,249.7,271.1,249.7,270.7,249.7L270.7,249.7z M264.2,215.2c-0.3,0-0.5,0-0.8,0.1l-2.5,0.8c-1.3,0.4-2,1.8-1.6,3.1&#10;&#9;&#9;c0,0,0,0,0,0l9,27.4c0.2,0.6,0.6,1.1,1.2,1.4c0.6,0.3,1.3,0.4,1.9,0.1l2.5-0.8l0,0c1.3-0.4,2-1.8,1.6-3.1l-9-27.4&#10;&#9;&#9;C266.2,215.9,265.3,215.2,264.2,215.2L264.2,215.2z"/>
	
		<ellipse transform="matrix(0.3163 -0.9487 0.9487 0.3163 2.1586 358.4118)" class="st1_smartphone-data-27" cx="249.7" cy="177.7" rx="23.7" ry="23.7"/>
	<path class="st0_smartphone-data-27" d="M249.7,202.1c-13.5,0-24.4-10.9-24.4-24.4c0-13.5,10.9-24.4,24.4-24.4c13.5,0,24.4,10.9,24.4,24.4&#10;&#9;&#9;c0,10.6-6.8,19.9-16.8,23.2C254.9,201.7,252.3,202.1,249.7,202.1L249.7,202.1z M249.7,154.7c-12.7,0-23,10.3-23,23&#10;&#9;&#9;c0,12.7,10.3,23,23,23c12.7,0,23-10.3,23-23c0-2.4-0.4-4.8-1.1-7.2C268.5,161.1,259.7,154.7,249.7,154.7L249.7,154.7z"/>
	<circle class="st1_smartphone-data-27" cx="249.7" cy="177.7" r="19.2"/>
	<path class="st0_smartphone-data-27" d="M249.7,197.6c-11,0-20-8.9-20.1-19.9c0-11,8.9-20,19.9-20.1c8.7,0,16.4,5.6,19.1,13.8l0,0&#10;&#9;&#9;c3.4,10.5-2.3,21.7-12.7,25.2C254,197.3,251.9,197.7,249.7,197.6L249.7,197.6z M249.7,159.1c-10.3,0-18.6,8.3-18.6,18.6&#10;&#9;&#9;c0,10.3,8.3,18.6,18.6,18.6s18.6-8.3,18.6-18.6c0-2-0.3-3.9-0.9-5.8l0,0C264.9,164.3,257.8,159.2,249.7,159.1L249.7,159.1z"/>
	<path class="st1_smartphone-data-27" d="M246.4,258.6l0.9-7c0-0.3,0.5-21.9,2.4-23.6s26-19.2,27.7-16.8s-1.7,6.9-1.7,6.9s5.7-0.6,5.1,2.8s-4,6.8-4,6.8&#10;&#9;&#9;s3.5-2.6,4,1.1c0.3,2.2-0.6,4.3-2.3,5.7c0,0,5.1-2.3,4,2s-13.6,15-13.6,15l-1.5,9.2L246.4,258.6L246.4,258.6z"/>
	<path class="st0_smartphone-data-27" d="M267.5,261.5L267.5,261.5l-21.1-2.2c0,0-0.1,0-0.1,0c-0.4-0.1-0.3-2.3,0.3-6.5l0.2-1.2c0-0.1,0.4-22,2.6-24&#10;&#9;&#9;c1.4-1.3,23.1-17.2,27.7-17.2h0.2c0.4,0,0.7,0.2,0.9,0.5c1.4,2,0,4.9-0.9,6.6c1.4-0.1,2.8,0.4,3.8,1.3c0.6,0.6,0.8,1.5,0.6,2.4&#10;&#9;&#9;c-0.4,1.9-1.2,3.6-2.4,5.1c0.3,0,0.6,0.1,1,0.2c0.9,0.5,1.5,1.4,1.5,2.4c0.2,1.6-0.1,3.1-0.9,4.5c0.7-0.1,1.5,0.1,2.1,0.5&#10;&#9;&#9;c0.7,0.6,0.9,1.6,0.5,3c-1.1,4.2-12,13.8-13.6,15.2l-1.5,9C268.1,261.3,267.8,261.6,267.5,261.5L267.5,261.5z M247.2,257.9&#10;&#9;&#9;l19.7,2.1l1.4-8.6c0-0.2,0.1-0.3,0.2-0.4c3.4-3,12.5-11.4,13.4-14.7c0.2-0.8,0.2-1.3-0.1-1.5c-0.5-0.4-2,0-3,0.4&#10;&#9;&#9;c-0.3,0.2-0.8,0-0.9-0.3c-0.1-0.3,0-0.7,0.3-0.9c1.5-1.2,2.3-3.1,2-5c-0.1-0.5-0.2-1.1-0.7-1.3c-0.7-0.3-1.9,0.4-2.2,0.7&#10;&#9;&#9;c-0.3,0.2-0.8,0.1-1-0.2c-0.2-0.3-0.2-0.6,0.1-0.9c0,0,3.2-3.3,3.8-6.4c0.1-0.4,0-0.9-0.3-1.2c-0.9-0.9-3.2-0.9-4.1-0.8&#10;&#9;&#9;c-0.3,0-0.5-0.1-0.7-0.4c-0.1-0.2-0.1-0.5,0-0.8c0.9-1.1,2.8-4.5,1.7-6.1c-2.4-0.7-24.2,14.8-26.7,16.9c-1.4,1.4-2.1,19.5-2.1,23&#10;&#9;&#9;c0,0-0.1,0.6-0.2,1.4C247.7,254.2,247.4,256.7,247.2,257.9L247.2,257.9z"/>
	<path class="st4_smartphone-data-27 targetColor" d="M184.9,218c0,0,13.6,8.2,23.8,27.1s25.3,65.5,25.3,65.5l8.7-59.4l29.8,6.7c0,0,2.5,106.5-23.8,118.4&#10;&#9;&#9;S155,314.2,155,314.2L184.9,218L184.9,218z" style="fill: rgb(0, 102, 255);"/>
	<path class="st0_smartphone-data-27" d="M240.1,378.2c-0.1,0-0.1,0-0.2,0c-0.1,0-14.8-4.4-31.8-20.2c-15.7-14.5-36.6-41.9-47.4-90&#10;&#9;&#9;c-0.1-0.4,0.2-0.8,0.5-0.8c0.4-0.1,0.8,0.1,0.8,0.5c0,0,0,0,0,0c20.5,91.4,77.7,109,78.2,109.2c0.4,0.1,0.6,0.5,0.5,0.9&#10;&#9;&#9;C240.7,378,240.4,378.2,240.1,378.2L240.1,378.2z"/>
	<path class="st4_smartphone-data-27 targetColor" d="M247.8,186.6l1.4-1.1l3.8-2.8c0.9-0.6,1.7-1.2,2.5-1.9c0.7-0.6,1.3-1.3,1.8-2.1c0.3-0.5,0.5-1.1,0.7-1.7&#10;&#9;&#9;c0.2-0.5,0.3-1,0.3-1.6c0.2-1.7-0.7-3.4-2.4-4c-1.7-0.6-3.7-0.2-5.1,1c-0.4,0.3-0.7,0.6-1,1c0,0,0,0-0.1,0.1c0,0,0-0.1-0.1-0.1&#10;&#9;&#9;c-0.4-0.8-1-1.5-1.8-2c-0.7-0.4-1.5-0.6-2.4-0.6c-2.1,0.1-3.9,1.5-4.6,3.5c-0.3,1.1-0.4,2.2-0.3,3.3c0.1,0.8,0.4,1.6,0.9,2.3&#10;&#9;&#9;c0.5,0.7,1,1.4,1.6,2c0.9,0.9,1.8,1.9,2.7,2.8c0.6,0.6,1.2,1.3,1.8,2v0.1L247.8,186.6z" style="fill: rgb(0, 102, 255);"/>
	<path class="st1_smartphone-data-27" d="M187.7,184.8l-7.7-4.4c0,0-2.3,9.2,1.8,11.5S187.6,184.8,187.7,184.8L187.7,184.8z"/>
	<path class="st0_smartphone-data-27" d="M183.1,193c-0.6,0-1.1-0.2-1.6-0.5c-4.6-2.6-2.2-11.9-2.1-12.3c0.1-0.2,0.2-0.4,0.4-0.5c0.2-0.1,0.4-0.1,0.6,0&#10;&#9;&#9;l7.6,4.4c0.3,0.2,0.4,0.4,0.3,0.7c-0.1,0.7-1.2,6.5-4,7.8C184,192.9,183.6,193,183.1,193L183.1,193z M180.5,181.5&#10;&#9;&#9;c-0.6,2.9-1,8.3,1.7,9.8c0.5,0.3,1,0.4,1.5,0.1c1.7-0.8,2.8-4.4,3.1-6.3L180.5,181.5L180.5,181.5z"/>
	<path class="st0_smartphone-data-27" d="M169.6,195.1c0,0-11.1-3-14.8-6.5c0,0,6.9,8.3,15.1,13.6L169.6,195.1L169.6,195.1z"/>
	<path class="st0_smartphone-data-27" d="M169.9,202.9c-0.1,0-0.3,0-0.4-0.1c-8.2-5.3-15.2-13.7-15.3-13.7c-0.3-0.3-0.2-0.7,0-1c0,0,0,0,0,0&#10;&#9;&#9;c0.3-0.3,0.7-0.3,1,0c3.5,3.4,14.4,6.3,14.5,6.4c0.3,0.1,0.5,0.3,0.5,0.6l0.3,7.1c0,0.3-0.1,0.5-0.4,0.6&#10;&#9;&#9;C170.2,202.9,170,202.9,169.9,202.9L169.9,202.9z M158.8,192c3.2,3.3,6.6,6.2,10.3,8.9l-0.2-5.2C165.5,194.7,162.1,193.5,158.8,192&#10;&#9;&#9;L158.8,192z"/>
</g>
</svg>